<?xml version="1.0" encoding="UTF-8" standalone="no"?>
<!DOCTYPE svg PUBLIC "-//W3C//DTD SVG 1.1//EN" "http://www.w3.org/Graphics/SVG/1.1/DTD/svg11.dtd">
<svg xmlns="http://www.w3.org/2000/svg" version="1.1" viewBox="0.00 0.00 1000.00 410.00">
<path fill="#ffffff" d="
  M 189.09 227.41
  Q 176.66 227.24 163.75 227.48
  Q 160.45 227.54 158.64 225.51
  Q 158.28 225.11 158.28 224.57
  L 158.29 188.76
  A 3.47 3.47 0.0 0 1 161.75 185.29
  Q 198.59 185.19 233.76 185.27
  C 238.43 185.28 237.88 188.23 237.88 192.09
  Q 237.92 246.04 237.89 299.51
  Q 237.89 300.57 236.98 301.12
  C 214.73 314.53 189.86 319.01 163.51 317.79
  C 129.84 316.22 99.16 305.37 82.55 274.70
  Q 73.52 258.00 70.42 237.51
  Q 63.98 194.92 73.44 154.74
  C 76.51 141.68 82.99 127.31 91.27 116.86
  C 106.57 97.52 128.52 88.53 153.01 86.59
  Q 177.25 84.68 201.27 88.43
  Q 215.28 90.62 227.49 96.93
  A 2.79 2.79 0.0 0 1 228.92 100.05
  Q 225.08 116.31 221.00 133.49
  Q 220.40 135.99 218.78 137.29
  Q 218.35 137.64 217.82 137.46
  Q 195.32 129.93 170.00 131.09
  Q 159.82 131.56 152.52 133.63
  C 114.60 144.35 114.05 193.83 118.08 224.74
  C 121.50 251.04 134.10 272.52 163.50 273.03
  Q 177.55 273.27 189.40 271.49
  A 0.81 0.81 0.0 0 0 190.08 270.69
  L 190.12 228.45
  A 1.04 1.04 0.0 0 0 189.09 227.41
  Z"
/>
<path fill="#ffffff" d="
  M 560.89 175.22
  L 560.87 97.70
  A 3.43 3.43 0.0 0 1 564.30 94.26
  L 605.34 94.27
  A 3.19 3.18 -90.0 0 1 608.52 97.46
  L 608.52 309.85
  Q 608.52 313.72 604.65 313.73
  L 564.49 313.73
  A 3.74 3.73 0.1 0 1 560.75 309.99
  L 560.93 220.54
  A 1.15 1.14 -90.0 0 0 559.79 219.39
  L 498.30 219.42
  A 1.04 1.04 0.0 0 0 497.26 220.46
  L 497.26 310.23
  A 3.49 3.49 0.0 0 1 493.77 313.72
  L 453.52 313.73
  Q 449.57 313.73 449.57 309.77
  L 449.56 98.48
  Q 449.56 94.26 453.78 94.26
  L 493.02 94.27
  Q 497.27 94.27 497.27 98.52
  L 497.25 174.67
  Q 497.25 176.08 498.67 176.08
  L 560.03 176.08
  Q 560.89 176.08 560.89 175.22
  Z"
/>
<path fill="#ffffff" d="
  M 824.58 302.74
  L 823.72 310.57
  A 3.54 3.54 0.0 0 1 820.20 313.73
  L 791.95 313.73
  A 3.78 3.77 90.0 0 1 788.18 309.95
  L 788.20 98.04
  A 3.77 3.76 -90.0 0 1 791.96 94.27
  L 832.83 94.27
  A 3.18 3.18 0.0 0 1 836.01 97.45
  L 836.02 169.00
  A 0.40 0.39 76.0 0 0 836.60 169.35
  Q 853.62 160.05 872.68 159.51
  C 929.84 157.89 935.03 212.26 931.19 254.72
  Q 929.93 268.65 925.73 282.45
  Q 916.63 312.37 885.76 316.80
  Q 852.30 321.61 824.87 302.61
  Q 824.61 302.43 824.58 302.74
  Z
  M 884.27 252.38
  C 885.70 228.86 887.73 191.20 850.44 199.39
  Q 843.00 201.03 836.37 204.55
  A 2.14 2.13 -14.3 0 0 835.24 206.45
  Q 835.28 238.53 835.35 270.75
  Q 835.35 272.57 837.03 273.41
  C 849.45 279.69 874.93 284.85 881.17 267.47
  Q 883.80 260.14 884.27 252.38
  Z"
/>
<circle fill="#ffffff" cx="285.20" cy="125.67" r="26.44"/>
<path fill="#ffffff" d="
  M 347.73 165.44
  A 0.97 0.95 83.6 0 0 348.47 164.50
  L 348.49 123.49
  A 2.02 2.02 0.0 0 1 350.51 121.47
  L 393.50 121.47
  A 2.03 2.03 0.0 0 1 395.53 123.50
  L 395.52 163.00
  A 0.98 0.97 0.3 0 0 396.50 163.98
  L 425.73 164.00
  Q 429.72 164.00 429.72 167.98
  L 429.73 199.77
  A 3.75 3.75 0.0 0 1 425.98 203.52
  L 396.47 203.52
  A 0.94 0.93 0.0 0 0 395.53 204.45
  Q 395.53 233.18 395.45 262.01
  C 395.40 280.65 412.72 279.72 426.24 278.24
  C 429.39 277.89 430.00 280.50 430.01 283.14
  Q 430.06 305.48 429.99 311.24
  Q 429.97 313.12 428.10 313.69
  Q 406.65 320.30 383.54 315.59
  C 359.69 310.73 348.57 292.05 348.51 268.76
  Q 348.44 236.64 348.50 204.74
  Q 348.51 203.51 347.27 203.51
  L 327.45 203.52
  Q 323.87 203.53 323.87 199.95
  L 323.88 173.29
  A 2.71 2.70 83.2 0 1 325.94 170.66
  L 347.73 165.44
  Z"
/>
<rect fill="#ffffff" x="260.88" y="163.95" width="47.86" height="149.72" rx="4.22"/>
<path fill="#ffffff" d="
  M 732.61 303.87
  C 711.40 316.19 688.85 321.11 664.94 316.13
  C 650.96 313.22 639.53 306.76 633.81 293.93
  C 628.58 282.20 628.62 271.33 628.60 255.86
  Q 628.55 211.51 628.63 167.38
  A 3.20 3.20 0.0 0 1 631.83 164.18
  L 672.94 164.18
  Q 676.51 164.17 676.51 167.74
  Q 676.54 213.09 676.52 258.50
  C 676.51 272.77 681.45 279.88 696.25 279.21
  Q 707.86 278.68 717.99 273.04
  Q 718.93 272.52 719.65 271.75
  A 1.36 1.36 0.0 0 0 720.01 270.83
  L 720.02 167.65
  Q 720.02 164.20 723.47 164.19
  L 763.92 164.15
  A 3.52 3.52 0.0 0 1 767.44 167.67
  L 767.45 310.01
  A 3.81 3.81 0.0 0 1 763.66 313.82
  Q 750.98 313.92 737.74 313.88
  C 733.74 313.87 733.70 307.13 733.76 304.55
  A 0.77 0.76 -14.3 0 0 732.61 303.87
  Z"
/>
</svg>
