<svg xmlns="http://www.w3.org/2000/svg" viewBox="0 0 600 200"><path fill="#fff" d="M89.2 42.9q2.1-4.6 6.4-5.3 12-2 12.2 10.1l.2 18.6q0 .6.6.6h2.6q.4 0 .3.3v.4a.4.4 0 0 1-.4.4H95q-1.8-.2-1.3-1a.4.4-73 0 1 .3-.1h1.7q.5 0 .5-.5V43.8q0-1.7-.9-2.8-.3-.5-.8-.5c-4.6-.6-5.7 6.3-5.7 9.5v16.4a.5.5 0 0 0 .5.4h2a.4.4 0 0 1 .3.6l-.2.3q0 .3-.4.3H74q-.4 0-.4-.4v-.4a.3.3 0 0 1 .2-.3h2.7q.6 0 .6-.7V22.5q0-.6-.6-.6l-2.1-.1q-.5 0-.7-.2l-.2-.4q0-.4.5-.4h14.3q.5 0 .5.5v21.5q0 1 .4 0ZM584.3 66.9h2.7a.4.4-77.8 0 1 .4.5l-.2.3q-.1.3-.4.3H551q-.4 0-.4-.4v-.4q-.1-.3.2-.3h2.7q.6 0 .6-.7V22.7a.8.7 3 0 0-.6-.7l-3-.3a.5.5-42 0 1 0-1h14.8q.5 0 .5.6v45a.6.6 0 0 0 .5.6h5.2q.6 0 .6-.7V22.4q0-.5-.6-.5h-2.4l-.6-.3-.2-.2a.5.5 0 0 1 .4-.6h14.6q.5 0 .5.5v45a.6.6 0 0 0 .5.6Z"/><path fill="#fff" d="m43.6 41-7.8 27q-.1.6-.6.6h-4.4q-.6 0-.8-.5L14.6 25.5q-.2-.5-.7-.5h-2q-.4 0-.4-.4v-.3q0-.3.3-.3h19.9a.4.3 14.5 0 1 .3.5l-.3.5a.2.1-72.3 0 1-.1 0H28q-.6.1-.4.7l9.7 28.6q.4.9.7 0 2.4-7.6 4.4-15 .5-2 0-4l-3.1-9.9q-.2-.4-.6-.4H36a.5.5 0 0 1-.4-.4v-.4q0-.2.3-.2h18.6q.5 0 .5.5v.3a.3.3 0 0 1-.2.2H52q-.6.1-.4.7l9 28.5a.2.2 43.5 0 0 .4 0l7.2-28.5q.2-.7-.5-.7h-5.3q-.4 0-.4-.4v-.3q0-.3.4-.3H74q.6 0 .5.5v.3a.3.3 0 0 1-.3.2h-3.1q-.7 0-.9.7L59 68q-.1.6-.7.6h-4.5a.7.7 80.9 0 1-.6-.4L44 41q-.2-1-.5 0ZM158 38h7.3a.4.4 89.2 0 1 .4.4v.5q0 .2-.3.2H158q-.5 0-.5.5v22.6c0 2 .8 3.8 3 4 3.2 0 4.9-4 5.3-6.7q0-.6.5-.4.3 0 .4.3v.5q-2.1 10.8-14 8.3-7.1-1.6-7-9l.1-19.4q0-.6-.6-.6h-2.4a.5.5 0 0 1 0-1.1l2.5-.1a.5.5 0 0 0 .5-.5v-7q0-.6.5-.7L157 27q.5 0 .5.4v10q0 .5.5.5ZM414 38h7.3a.4.4 89.2 0 1 .4.4v.5q0 .2-.3.2H414q-.5 0-.5.5v22.6c0 2 .8 3.8 3 4 3.2 0 5-4.2 5.3-6.9q0-.5.5-.2l.2.1.1.1c-.3 7.5-6 10.2-12.7 9.1-5.3-.8-8-3.2-8-9q-.2-9.8 0-19.7 0-.6-.7-.6h-2.4a.5.5 0 0 1 0-1l2.5-.1a.5.5 0 0 0 .5-.5v-7q0-.6.5-.7L413 27q.5 0 .5.4v10q0 .5.5.5ZM446 38h7.3a.4.4 0 0 1 .4.4v.5q0 .2-.3.2H446q-.5 0-.5.5v22.9q0 3.1 2.4 3.5c3.5.6 5.5-3.5 5.7-6.4a.4.4 7.1 0 1 .4-.4l.5.1q.3 0 .3.5-1.5 9.5-12.3 8.6c-8-.7-8.6-4.8-8.7-12.1V39.7q0-.6-.6-.6h-2.4a.5.5 0 0 1 0-1l2.5-.1q.5 0 .5-.5v-7q0-.6.5-.7L445 27q.5 0 .5.4v10q0 .5.5.5ZM520 55.7c1.2 13-11.2 15.5-20.3 10.5a.8.8-53.9 0 0-1 .2l-2 2a.3.3 0 0 1-.6-.2V57.8a.4.4 0 0 1 .8-.2q3.3 11.4 14.3 9.3c4.6-.9 4.5-6 0-7.3-6.5-1.7-15.7-3.3-15-12.3.7-7.7 7.2-11.4 14.7-9.3q2.2.6 4.3 1.4a.9.8-59 0 0 1-.2l1.3-1.7a.4.4 0 0 1 .7.3v8.7a.5.5 0 0 1-1 .2q-3-9.2-12.4-7.7c-1.5.2-3.1 1.6-3.2 3-.3 4 8 5 10.9 6q6 1.9 7.6 7.7ZM127.5 64.9c-3.5 6-14.8 4.8-16.1-2.5-1.6-8.8 9-9.4 15.5-9q.6 0 .6-.6c.2-3 .6-11.9-1.5-14-1.7-1.7-5.5 0-4.3 3.3q.1.4.5.5h.5q.6.1.8.8c2.5 7.4-9.3 10-10.5 2.7-1.6-10.3 16.2-9.5 21.3-7.5q4.6 1.8 4.8 8 .3 8 .2 16.7a1.9 1.9 0 0 0 1.9 2c2.1-.2 2.3-4.6 2.5-6.3a.3.3 0 0 1 .6 0q.8 10.6-9.8 9.5-4.5-.5-6.5-3.6-.3-.4-.5 0Zm-3.9.2a1.3 1.3 0 0 0 2.2.7c2.4-2.3 2-8 1.8-11q0-.5-.5-.5c-5-.3-4.2 8-3.5 10.8ZM237 55a13.4 13.4 0 0 1-13.4 13.4H219a13.4 13.4 0 0 1-13.5-13.3v-4a13.4 13.4 0 0 1 13.3-13.5h4.7A13.4 13.4 0 0 1 237 50.8v4ZM224.6 43c-.4-6-6.4-6.3-7-.6q-.7 9.1-.2 19.4.1 2.6 1.4 4.7a1.5 1.5 82.9 0 0 .8.6c3.7 1.3 4.9-1.5 5.1-4.6q.7-9.2 0-19.5ZM346.4 64.9q-1.6 3.2-5.1 3.6c-6 .6-11.8-1.5-11-8.6 1-6.7 10.6-7 15.6-6.6q.6 0 .6-.5c.2-2.7 1.6-18.6-5.6-13.7a2 2-55.8 0 0 .7 3.5l.3.1q.5.1.6.5c2.6 7.6-9.3 10.1-10.5 3-1.6-10.4 16.2-9.6 21.3-7.6q4.6 1.8 4.8 8 .2 8.1.2 16.9a1.7 1.7 0 0 0 2.4 1.6c1.7-.8 1.7-4.3 2-6a.4.4 0 0 1 .7 0q.3 10.7-10.1 9.3-4.4-.6-6.3-3.6-.3-.4-.6 0Zm-3.8.2a1.3 1.3 61.8 0 0 2.2.7c2.4-2.3 2-8 1.8-11q0-.4-.5-.5c-5-.3-4.2 8-3.5 10.8Z"/><path fill="#fff" d="M378.3 42.6q3.9-6.7 12-4.8c5.8 1.4 6.6 5.4 6.7 11.1v17.3q0 .6.6.6 1.1.2 2.1 0 .6 0 .8.2.2.2.2.5a.5.5 0 0 1-.5.5h-17a.5.5 86.7 0 1-.4-.4v-.4a.3.3 0 0 1 .2-.3h1.8q.6 0 .6-.7V44q0-1.7-.8-3-.3-.4-.8-.5c-4.2-.7-5.7 5.2-5.8 8.2q-.2 8.8 0 17.6 0 .6.5.6h1.9a.4.4-78.2 0 1 .3.5l-.1.3q-.2.3-.5.3h-16.9q-.6 0-.4-.5v-.3a.3.3 0 0 1 .4-.3h2.5q.6 0 .6-.6V39.7q0-.6-.6-.6h-2.5q-.5 0-.4-.5v-.2q.1-.4.5-.4h14.2q.5 0 .5.5v4q-.1.8.3.1ZM486 55a13.4 13.4 0 0 1-13.4 13.4H468a13.4 13.4 0 0 1-13.5-13.3v-4a13.4 13.4 0 0 1 13.3-13.5h4.7A13.4 13.4 0 0 1 486 50.8v4ZM473.6 43q-.1-1.6-.7-2.8c-1.1-2.4-4-2.3-5.4-.4-2.2 3.2-1.3 17.4-1.1 22q.1 2.6 1.4 4.7a1.4 1.4 0 0 0 .8.6c3.7 1.3 4.9-1.5 5.1-4.6q.7-9.2 0-19.5ZM520 55.7c-1.5-12 6.8-19.4 18.4-18.2 7.8.8 12.2 6 11.3 13.9q0 .4-.5.4h-16.7a.4.4 1.4 0 0-.4.4c-.3 5.9-.2 15.2 8.4 14.5q6.3-.6 8-7.4.2-.4.6-.3h.3q.4.1.3.5c-2.2 8.2-9.5 9.8-17 8.8q-10.9-1.5-12.6-12.6Zm12.6-5.2h5.6a.4.4 0 0 0 .4-.4l.1-5.4a6.1 2.9-89.1 0 0-2.8-6.1h-.7a6.1 2.9-89.1 0 0-3 6V50a.4.4 0 0 0 .4.5ZM196.3 59.3l6.9-19.6q.2-.6-.5-.6h-3.3q-.6 0-.3-.5l.1-.3q.1-.3.4-.3h8q.5 0 .4.5v.3a.3.3-84.1 0 1-.4.3h-2.3q-.5 0-.7.5-6.1 18.2-12.7 36.3-3.3 9.3-12.6 7.6-4.5-.9-5-4.8c-1.3-8.9 12.3-8.3 9.7-.2q-.2.4-.6.4h-1q-.5 0-.7.5c-.7 1.8.4 3 2.3 2.8 4.8-.7 7.8-9.2 8.9-13.7q0-.5-.4-.5h-4.3q-.5 0-.7-.5l-10.4-27.9a.6.6-5.5 0 0-.5-.4l-2.2-.2a.5.5 0 0 1 .1-1h17q1.3.2 1.1.8a.4.4 6 0 1-.3.3h-2.6q-.5 0-.3.6l6.4 19.6q.2.8.5 0ZM258 64.3q-2.3 3.7-5.7 4.1c-13.2 1.5-12.5-7.1-12.5-17.3V39.7q0-.6-.6-.6h-2.4q-.6 0-.6-.6 0-.2.2-.3.1-.2.4-.2H251q.5 0 .5.6v23.6q0 2 1.3 3.4a1 1-26.2 0 0 .9.3q4-.6 4.4-4.7.5-5.3.1-21.6 0-.5-.5-.5h-2q-.7 0-.4-.5l.2-.4q.1-.2.4-.2h13.6q.5 0 .5.5v27.8a.6.6 3.1 0 0 .6.6H273.3q.4.3 0 .9a.5.5 17.6 0 1-.4.2h-13.3q-.5 0-.6-.4l-.4-3.1q-.1-1-.6-.2ZM307.7 49.5l-5.5 18q-.2.5-.7.5H294q-.5 0-.6-.4l-9-27.9q-.2-.6-.8-.6h-2a.6.6 0 0 1 0-1L300 38q.4 0 .6.4l.1.3a.3.3 0 0 1-.3.4h-3q-.6 0-.4.6l5.4 20.2a.2.2 0 0 0 .4 0l3.7-11.9c1-3 0-5.4-.8-8.4a.6.6 84.3 0 0-.5-.4l-1.5-.1a.5.5-43.4 0 1 0-1L319 38q.3 0 .4.3v.4a.3.3 0 0 1-.3.4h-1.6q-.7 0-.5.7l5.3 19.7a.3.3 0 0 0 .5 0l5.2-19.8q.2-.6-.5-.6h-3.2q-.5 0-.5-.4 0-.7.6-.7h7.3q.5 0 .6.5v.3q0 .3-.3.3h-1.9a.7.7 6.2 0 0-.6.5l-7.3 27.6q-.1.8-1 .8h-7.4q-.3 0-.4-.3l-5.2-18.2q-.2-1-.5 0ZM242.3 132h7.2q.4 0 .6.4v.3q.2.4-.3.4h-7.5q-.5 0-.5.6v26.6a.6.6 89.1 0 0 .6.6h6.5q.6 0 .6.6a.5.5 0 0 1-.5.5h-22a.5.5 86.5 0 1-.4-.4v-.4a.3.3 84.1 0 1 .2-.3h2.8a.5.5 89.4 0 0 .5-.5v-26.6q0-.6-.6-.7h-3q-.2 0-.2-.3l.1-.4q.1-.3.5-.3l2.8-.1q.5 0 .5-.5c-.2-7 1.7-15.2 9.3-17.5 5.4-1.5 15.8-1.2 15.7 6.8 0 7.1-12.5 6.9-9.9-1.7q.1-.4.5-.4h1.4q.8 0 .8-.7l-.1-2.7a.7.7-83.4 0 0-.6-.6q-4.7-1.3-5.3 3-.5 4.8-.1 13.9 0 .4.4.4Z"/><rect width="12.5" height="11.6" x="-6.3" y="-5.8" fill="#fff" rx="5.3" transform="rotate(.4 -17303 41604.5)"/><rect width="12.5" height="11.6" x="-6.2" y="-5.8" fill="#fff" rx="5.3" transform="rotate(.4 -17243 58793.1)"/><path fill="#fff" d="M168 132h7q.5 0 .6.3l.1.4q0 .4-.4.4H168q-.5 0-.5.5V156c0 2 .6 4.1 3 4.1 3.2 0 5-4.1 5.2-6.8q0-.5.5-.3l.3.2q.3.1.3.5-2.1 11-14 8.5-7.2-1.6-7.2-9l.2-19.4q0-.6-.6-.7h-2.4a.5.5 0 0 1 0-1l2.5-.1a.5.5 0 0 0 .5-.5v-7q0-.6.5-.7l10.7-2.6q.5-.2.5.3v10q0 .5.5.5ZM137.5 158.9c-3.4 6-14.8 4.8-16.1-2.5-1.6-8.8 9-9.4 15.5-9q.6 0 .6-.6c.2-3 .6-11.9-1.5-14-1.7-1.7-5.5 0-4.3 3.3q.1.4.5.5l.8.1q.3 0 .4.4 1.7 5.9-3.9 7.1c-5.7 1.3-8.2-4.3-5.6-8.7 3.3-5.3 16-4.6 20.4-2.9q4.6 1.8 4.8 8 .3 8 .2 16.7a1.9 1.9 0 0 0 1.9 2c2.1-.2 2.3-4.6 2.5-6.3a.3.3 0 0 1 .6 0q.8 10.6-9.8 9.5-4.5-.5-6.5-3.6-.3-.5-.5 0Zm-3.9.2a1.3 1.3 0 0 0 2.2.7c2.4-2.3 2-8 1.8-11q0-.5-.5-.5c-5-.4-4.2 8-3.5 10.8ZM201.5 158.9c-3.4 6-14.8 4.8-16.1-2.5-1.6-8.8 9-9.4 15.5-9q.6 0 .6-.6c.2-3 .6-11.9-1.5-14-1.7-1.7-5.5 0-4.3 3.3q.1.4.5.5l.8.1q.3 0 .4.4 1.7 5.9-3.9 7.1c-5.7 1.3-8.2-4.3-5.6-8.7 3.3-5.3 16-4.6 20.4-2.9q4.6 1.8 4.8 8 .3 8 .2 16.7a1.9 1.9-.4 0 0 1.9 2q1.7-.2 2-2.4l.5-3.7q.1-.5.6-.3.2.1.1.4c-.8 7-2 10.1-10.4 9q-4-.4-6-3.5-.3-.4-.5 0Zm-3.9.2a1.3 1.3 0 0 0 2.2.7c2.4-2.3 2-8 1.8-11q0-.5-.5-.5c-5-.4-4.2 8-3.5 10.8ZM264.5 158.8c-3 6-14.5 4.8-16-1.5-2.2-9.6 8.3-10.3 15.4-10q.6 0 .6-.5c.2-3 .6-11.9-1.5-14-1.7-1.7-5.6 0-4.3 3.3q.1.4.5.5h.6q.4.1.6.5c2.9 7.6-8.9 10.2-10.3 3.3-2.2-10.6 16.1-9.7 21.2-7.8q4.6 1.8 4.8 8l.3 16.4q0 2 1.7 2.4a1 1 0 0 0 1.1-.5q1.4-2.6 1.4-5.5a.4.4 0 0 1 .7-.1c.7 4-1.2 8.1-5.6 9-3.9.8-8.3.2-10.6-3.5q-.4-.6-.6 0Zm-3.9.3a1.3 1.3 0 0 0 2.2.7c2.4-2.3 2-8 1.8-11q0-.5-.5-.5c-5-.4-4.2 8-3.5 10.8Z"/><path fill="#fff" d="M314 137.3c3.4-8.5 17-7.8 14.6 2.4-1.5 7-12 5.4-10-2.1q.2-.6.8-.6h.7a1.6 1.6 0 0 0 .6-3c-4.2-1.8-6.8 5.9-6.9 8.6q-.2 5.5 0 17.8a.5.5 0 0 0 .5.5h3.6a.4.4 10.9 0 1 .4.5l-.1.3q-.1.3-.4.3h-37a.5.5 0 0 1 0-1l3-.2a.5.5 0 0 0 .3-.5v-26.6a.6.6 0 0 0-.5-.5q-1.3-.2-2.5 0-.5 0-.6-.3-.2-.1-.2-.5a.5.5-88 0 1 .5-.4H295q.7 0 .7.6v27.7a.6.6 0 0 0 .5.6h5.3a.5.5 0 0 0 .5-.5v-26.7q0-.6-.6-.6H299a.4.4 0 0 1-.4-.4v-.2a.4.4 0 0 1 .4-.5h14.3q.5 0 .5.5v4.7q0 .8.2 0ZM351.8 160.3v15q0 .5.5.5 3.4.2 6.8 0 .5 0 .7.3l.2.4q0 .5-.5.5H337q-.4 0-.4-.4v-.4q-.1-.3.2-.3h2.7q.6 0 .6-.7v-41.5q0-.6-.6-.6h-2.3q-.7 0-.4-.6v-.3q.1-.2.3-.2h14.1q.5 0 .5.5v3.5q0 .8.4.1 3.5-5.7 10.5-4.4c4.8.9 7 3.8 8.3 8.5 3 10.9-.2 24.3-14.7 22.1q-2.4-.3-4-2.2-.4-.5-.4.2Zm7.2-2.6c.5-3.3 1.9-20.6-1-23a2.5 2.5 41.2 0 0-3.5.2c-3.8 4-3 13.2-2.6 21.3q.3 4.2 4.3 4.6a1.3 1.2-57.8 0 0 .9-.2q1.7-1.2 2-2.8Z"/><path fill="#fff" d="M387 137.3q2.1-5.3 7.2-5.8c11-1 9.6 14.6.8 12.5q-5-1.2-3.2-6.5 0-.4.4-.5.5-.1 1.1.2a1.8 1.4 61.7 0 0 .5-3.3c-4-2-6.8 5.8-7 8.4q-.2 5 0 18.1a.5.5 0 0 0 .5.5h3.6a.4.4 0 0 1 .4.6l-.1.2q-.1.3-.4.3H372a.5.5-2.7 0 1-.4-.4v-.4q-.1-.3.2-.3h2.7q.6 0 .6-.7v-26.5q0-.6-.6-.6H372q-.5 0-.4-.4v-.3q.1-.4.5-.4h14.2q.5 0 .5.5v4.7q0 .9.2 0ZM447.4 152c-.9-7-.5-13.6 5.3-17.6 5-3.5 13.7-4 18.9-1q5.8 3.5 5 12 0 .3-.4.3h-16.7q-.4 0-.4.5c-.3 6.2.3 17.3 10.3 14q4.7-1.6 6.2-7a.5.5 0 0 1 .6-.2l.3.1q.2 0 .2.3-2.2 8-11.2 9-13 1.3-18-9.2-.2-.5-.3 0-1.8 8-10.4 9.1-14.8 2.1-17.6-11.5-2.2-11 6-16.5c4.9-3.4 16.3-4.7 20.5.6 3.9 4.9 0 13-6.5 9.9q-3.8-1.9-2.4-6.5.2-.5.7-.5h1q.4 0 .5-.4c1.2-4.2-2.7-6.7-5.5-3.9-3.4 3.5-3.1 20.5-1 24.4 2 3.3 7 3.2 9.7 1.3q3-2.2 4.1-6.7a.4.3 10.4 0 1 .4-.2h.3q.5.1.4-.3Zm12.2-7.5h5.6a.5.5 0 0 0 .5-.5v-4.7a6.8 2.9 90 0 0-2.8-6.7h-1a6.8 2.9-90 0 0-2.8 6.8v4.6a.5.5 0 0 0 .5.5Z"/><path fill="#fff" d="M416.3 160.9h2.7a.4.4 0 0 1 .4.6l-.2.2q0 .3-.3.3h-17.4q-.5 0-.7-.3-.2 0-.2-.3-.2-.5.4-.5h2.5q.6 0 .6-.7v-26.4a.6.6-88.5 0 0-.6-.6l-2.7-.2a.5.5 0 0 1 0-1h14.5q.5 0 .5.5v27.8a.6.6 0 0 0 .5.6Z"/></svg>