<?xml version="1.0" encoding="UTF-8" standalone="no"?>
<!DOCTYPE svg PUBLIC "-//W3C//DTD SVG 1.1//EN" "http://www.w3.org/Graphics/SVG/1.1/DTD/svg11.dtd">
<svg xmlns="http://www.w3.org/2000/svg" version="1.1" viewBox="0.00 0.00 300.00 300.00">
<g stroke-width="2.00" fill="none" stroke-linecap="butt">
<path stroke="#808080" vector-effect="non-scaling-stroke" d="
  M 290.00 10.32
  A 0.32 0.32 0.0 0 0 289.68 10.00
  L 10.32 10.00
  A 0.32 0.32 0.0 0 0 10.00 10.32
  L 10.00 289.68
  A 0.32 0.32 0.0 0 0 10.32 290.00
  L 289.68 290.00
  A 0.32 0.32 0.0 0 0 290.00 289.68
  L 290.00 10.32"
/>
<path stroke="#808080" vector-effect="non-scaling-stroke" d="
  M 52.20 137.98
  L 40.83 92.01
  Q 40.70 91.50 40.18 91.50
  L 24.82 91.50
  Q 24.44 91.50 24.54 91.87
  C 30.63 113.49 38.30 134.46 43.80 156.28
  Q 44.89 160.63 44.94 165.23
  Q 45.13 183.44 44.94 201.69
  Q 44.93 202.25 45.50 202.25
  L 60.52 202.25
  Q 61.03 202.25 61.03 201.74
  Q 60.97 182.89 61.00 164.05
  Q 61.00 160.50 62.01 157.09
  Q 71.61 124.54 81.41 92.06
  Q 81.58 91.50 80.99 91.50
  L 65.74 91.50
  Q 65.16 91.50 65.02 92.07
  L 53.74 137.98
  Q 52.97 141.11 52.20 137.98"
/>
<path stroke="#808080" vector-effect="non-scaling-stroke" d="
  M 255.72 123.23
  C 247.66 121.86 240.13 120.98 233.34 125.94
  C 224.14 132.65 223.70 150.79 223.77 160.90
  C 223.85 174.39 224.79 197.39 240.97 201.84
  Q 256.25 206.04 272.10 198.55
  Q 272.48 198.37 272.48 197.96
  L 272.51 92.01
  Q 272.51 91.50 272.00 91.50
  L 257.00 91.50
  Q 256.50 91.50 256.50 92.00
  L 256.49 122.58
  A 0.66 0.66 0.0 0 1 255.72 123.23"
/>
<path stroke="#808080" vector-effect="non-scaling-stroke" d="
  M 165.75 130.78
  L 165.73 201.87
  Q 165.73 202.25 166.12 202.25
  L 181.00 202.25
  Q 181.50 202.25 181.50 201.75
  L 181.51 145.35
  Q 181.52 143.91 182.88 143.45
  Q 194.42 139.64 206.57 139.72
  Q 207.04 139.73 207.04 139.25
  L 206.98 122.46
  Q 206.98 121.93 206.45 121.96
  Q 185.71 123.17 166.19 130.16
  Q 165.75 130.31 165.75 130.78"
/>
<path stroke="#808080" vector-effect="non-scaling-stroke" d="
  M 125.92 150.69
  C 111.98 150.92 98.66 153.57 94.80 168.81
  C 93.65 173.33 93.63 179.42 94.55 183.99
  C 99.08 206.66 125.75 205.81 142.04 199.06
  Q 142.50 198.87 142.50 198.38
  Q 142.53 172.31 142.39 146.25
  C 142.34 135.66 139.85 125.35 127.94 123.09
  Q 113.37 120.33 97.90 125.72
  Q 97.50 125.86 97.50 126.29
  L 97.50 141.97
  Q 97.50 142.39 97.89 142.23
  Q 109.34 137.38 121.71 138.81
  C 127.00 139.43 126.77 146.14 126.42 150.23
  Q 126.39 150.69 125.92 150.69"
/>
<path stroke="#808080" vector-effect="non-scaling-stroke" d="
  M 256.65 181.42
  L 256.12 143.57
  A 3.96 3.96 0.0 0 0 252.11 139.66
  L 247.64 139.72
  A 13.41 8.11 89.2 0 0 239.72 153.25
  L 239.98 172.20
  A 13.41 8.11 89.2 0 0 248.28 185.50
  L 252.75 185.44
  A 3.96 3.96 0.0 0 0 256.65 181.42"
/>
<path stroke="#808080" vector-effect="non-scaling-stroke" d="
  M 126.54 185.58
  L 126.46 168.50
  A 0.92 0.92 0.0 0 0 125.53 167.58
  L 119.00 167.62
  A 9.29 9.10 -0.3 0 0 109.76 176.76
  L 109.76 177.48
  A 9.29 9.10 -0.3 0 0 119.10 186.54
  L 125.63 186.50
  A 0.92 0.92 0.0 0 0 126.54 185.58"
/>
</g>
<path fill="#000000" d="
  M 0.00 0.00
  L 300.00 0.00
  L 300.00 300.00
  L 0.00 300.00
  L 0.00 0.00
  Z
  M 290.00 10.32
  A 0.32 0.32 0.0 0 0 289.68 10.00
  L 10.32 10.00
  A 0.32 0.32 0.0 0 0 10.00 10.32
  L 10.00 289.68
  A 0.32 0.32 0.0 0 0 10.32 290.00
  L 289.68 290.00
  A 0.32 0.32 0.0 0 0 290.00 289.68
  L 290.00 10.32
  Z"
/>
<path fill="#ffffff" d="
  M 290.00 289.68
  A 0.32 0.32 0.0 0 1 289.68 290.00
  L 10.32 290.00
  A 0.32 0.32 0.0 0 1 10.00 289.68
  L 10.00 10.32
  A 0.32 0.32 0.0 0 1 10.32 10.00
  L 289.68 10.00
  A 0.32 0.32 0.0 0 1 290.00 10.32
  L 290.00 289.68
  Z
  M 52.20 137.98
  L 40.83 92.01
  Q 40.70 91.50 40.18 91.50
  L 24.82 91.50
  Q 24.44 91.50 24.54 91.87
  C 30.63 113.49 38.30 134.46 43.80 156.28
  Q 44.89 160.63 44.94 165.23
  Q 45.13 183.44 44.94 201.69
  Q 44.93 202.25 45.50 202.25
  L 60.52 202.25
  Q 61.03 202.25 61.03 201.74
  Q 60.97 182.89 61.00 164.05
  Q 61.00 160.50 62.01 157.09
  Q 71.61 124.54 81.41 92.06
  Q 81.58 91.50 80.99 91.50
  L 65.74 91.50
  Q 65.16 91.50 65.02 92.07
  L 53.74 137.98
  Q 52.97 141.11 52.20 137.98
  Z
  M 255.72 123.23
  C 247.66 121.86 240.13 120.98 233.34 125.94
  C 224.14 132.65 223.70 150.79 223.77 160.90
  C 223.85 174.39 224.79 197.39 240.97 201.84
  Q 256.25 206.04 272.10 198.55
  Q 272.48 198.37 272.48 197.96
  L 272.51 92.01
  Q 272.51 91.50 272.00 91.50
  L 257.00 91.50
  Q 256.50 91.50 256.50 92.00
  L 256.49 122.58
  A 0.66 0.66 0.0 0 1 255.72 123.23
  Z
  M 165.75 130.78
  L 165.73 201.87
  Q 165.73 202.25 166.12 202.25
  L 181.00 202.25
  Q 181.50 202.25 181.50 201.75
  L 181.51 145.35
  Q 181.52 143.91 182.88 143.45
  Q 194.42 139.64 206.57 139.72
  Q 207.04 139.73 207.04 139.25
  L 206.98 122.46
  Q 206.98 121.93 206.45 121.96
  Q 185.71 123.17 166.19 130.16
  Q 165.75 130.31 165.75 130.78
  Z
  M 125.92 150.69
  C 111.98 150.92 98.66 153.57 94.80 168.81
  C 93.65 173.33 93.63 179.42 94.55 183.99
  C 99.08 206.66 125.75 205.81 142.04 199.06
  Q 142.50 198.87 142.50 198.38
  Q 142.53 172.31 142.39 146.25
  C 142.34 135.66 139.85 125.35 127.94 123.09
  Q 113.37 120.33 97.90 125.72
  Q 97.50 125.86 97.50 126.29
  L 97.50 141.97
  Q 97.50 142.39 97.89 142.23
  Q 109.34 137.38 121.71 138.81
  C 127.00 139.43 126.77 146.14 126.42 150.23
  Q 126.39 150.69 125.92 150.69
  Z"
/>
<path fill="#000000" d="
  M 52.20 137.98
  Q 52.97 141.11 53.74 137.98
  L 65.02 92.07
  Q 65.16 91.50 65.74 91.50
  L 80.99 91.50
  Q 81.58 91.50 81.41 92.06
  Q 71.61 124.54 62.01 157.09
  Q 61.00 160.50 61.00 164.05
  Q 60.97 182.89 61.03 201.74
  Q 61.03 202.25 60.52 202.25
  L 45.50 202.25
  Q 44.93 202.25 44.94 201.69
  Q 45.13 183.44 44.94 165.23
  Q 44.89 160.63 43.80 156.28
  C 38.30 134.46 30.63 113.49 24.54 91.87
  Q 24.44 91.50 24.82 91.50
  L 40.18 91.50
  Q 40.70 91.50 40.83 92.01
  L 52.20 137.98
  Z"
/>
<path fill="#000000" d="
  M 256.49 122.58
  L 256.50 92.00
  Q 256.50 91.50 257.00 91.50
  L 272.00 91.50
  Q 272.51 91.50 272.51 92.01
  L 272.48 197.96
  Q 272.48 198.37 272.10 198.55
  Q 256.25 206.04 240.97 201.84
  C 224.79 197.39 223.85 174.39 223.77 160.90
  C 223.70 150.79 224.14 132.65 233.34 125.94
  C 240.13 120.98 247.66 121.86 255.72 123.23
  A 0.66 0.66 0.0 0 0 256.49 122.58
  Z
  M 256.65 181.42
  L 256.12 143.57
  A 3.96 3.96 0.0 0 0 252.11 139.66
  L 247.64 139.72
  A 13.41 8.11 89.2 0 0 239.72 153.25
  L 239.98 172.20
  A 13.41 8.11 89.2 0 0 248.28 185.50
  L 252.75 185.44
  A 3.96 3.96 0.0 0 0 256.65 181.42
  Z"
/>
<path fill="#000000" d="
  M 165.73 201.87
  L 165.75 130.78
  Q 165.75 130.31 166.19 130.16
  Q 185.71 123.17 206.45 121.96
  Q 206.98 121.93 206.98 122.46
  L 207.04 139.25
  Q 207.04 139.73 206.57 139.72
  Q 194.42 139.64 182.88 143.45
  Q 181.52 143.91 181.51 145.35
  L 181.50 201.75
  Q 181.50 202.25 181.00 202.25
  L 166.12 202.25
  Q 165.73 202.25 165.73 201.87
  Z"
/>
<path fill="#000000" d="
  M 126.42 150.23
  C 126.77 146.14 127.00 139.43 121.71 138.81
  Q 109.34 137.38 97.89 142.23
  Q 97.50 142.39 97.50 141.97
  L 97.50 126.29
  Q 97.50 125.86 97.90 125.72
  Q 113.37 120.33 127.94 123.09
  C 139.85 125.35 142.34 135.66 142.39 146.25
  Q 142.53 172.31 142.50 198.38
  Q 142.50 198.87 142.04 199.06
  C 125.75 205.81 99.08 206.66 94.55 183.99
  C 93.63 179.42 93.65 173.33 94.80 168.81
  C 98.66 153.57 111.98 150.92 125.92 150.69
  Q 126.39 150.69 126.42 150.23
  Z
  M 126.54 185.58
  L 126.46 168.50
  A 0.92 0.92 0.0 0 0 125.53 167.58
  L 119.00 167.62
  A 9.29 9.10 -0.3 0 0 109.76 176.76
  L 109.76 177.48
  A 9.29 9.10 -0.3 0 0 119.10 186.54
  L 125.63 186.50
  A 0.92 0.92 0.0 0 0 126.54 185.58
  Z"
/>
<path fill="#ffffff" d="
  M 256.65 181.42
  A 3.96 3.96 0.0 0 1 252.75 185.44
  L 248.28 185.50
  A 13.41 8.11 89.2 0 1 239.98 172.20
  L 239.72 153.25
  A 13.41 8.11 89.2 0 1 247.64 139.72
  L 252.11 139.66
  A 3.96 3.96 0.0 0 1 256.12 143.57
  L 256.65 181.42
  Z"
/>
<path fill="#ffffff" d="
  M 126.54 185.58
  A 0.92 0.92 0.0 0 1 125.63 186.50
  L 119.10 186.54
  A 9.29 9.10 -0.3 0 1 109.76 177.48
  L 109.76 176.76
  A 9.29 9.10 -0.3 0 1 119.00 167.62
  L 125.53 167.58
  A 0.92 0.92 0.0 0 1 126.46 168.50
  L 126.54 185.58
  Z"
/>
</svg>
